<svg width="327" height="90" fill="none" xmlns="http://www.w3.org/2000/svg"><path d="M117.523 66l8.314-41.57h7.958l17.875 30.11-3.147-.178 5.938-29.93h9.502L155.649 66h-7.898l-17.935-30.108 3.207.178L127.025 66h-9.502zm60.313.475c-2.454 0-4.731-.554-6.829-1.663-2.098-1.148-3.781-2.79-5.048-4.929-1.267-2.138-1.9-4.71-1.9-7.72 0-2.692.435-5.166 1.306-7.423.911-2.257 2.178-4.216 3.801-5.88a17.259 17.259 0 015.642-3.86c2.137-.95 4.434-1.424 6.888-1.424 2.653 0 4.929.495 6.83 1.484 1.9.99 3.305 2.534 4.216 4.632.95 2.059 1.287 4.731 1.01 8.017-.198 3.761-.97 7.067-2.317 9.918-1.346 2.81-3.167 4.988-5.463 6.532-2.257 1.544-4.969 2.316-8.136 2.316zm2.851-7.66c1.821 0 3.424-.436 4.81-1.307 1.425-.91 2.534-2.138 3.326-3.682.831-1.584 1.247-3.425 1.247-5.523 0-2.177-.654-3.9-1.96-5.166-1.267-1.267-3.049-1.9-5.345-1.9-1.781 0-3.385.455-4.81 1.365-1.425.871-2.554 2.099-3.385 3.682-.792 1.544-1.188 3.365-1.188 5.464 0 2.177.634 3.9 1.901 5.166 1.306 1.267 3.107 1.9 5.404 1.9zM187.041 66l1.247-6.354 2.079-9.502 1.247-9.502 1.306-6.591h9.264L195.83 66h-8.789zm28.887.475c-2.296 0-4.256-.455-5.879-1.366a8.115 8.115 0 01-3.504-4.038c-.673-1.782-.772-3.88-.297-6.295l5.523-27.792h9.264l-5.523 27.733c-.237 1.346-.099 2.415.416 3.207.514.791 1.465 1.187 2.85 1.187.634 0 1.267-.099 1.901-.297a7.088 7.088 0 001.841-.831l1.365 6.592a11.37 11.37 0 01-3.8 1.484 21.159 21.159 0 01-4.157.416zM203.873 41.89l1.425-7.127h22.151l-1.426 7.127h-22.15zm37.03 24.585c-2.612 0-4.869-.554-6.769-1.663-1.901-1.148-3.247-2.81-4.039-4.988-.791-2.177-.871-4.87-.237-8.076l3.504-17.697h9.264l-3.385 17.103c-.475 2.335-.297 4.137.534 5.404.871 1.267 2.395 1.9 4.573 1.9 2.296 0 4.216-.673 5.76-2.019 1.584-1.346 2.633-3.405 3.148-6.176l3.266-16.212h9.264L259.432 66h-8.789l1.781-9.027 1.307 2.732c-1.505 2.336-3.385 4.058-5.642 5.167a16.58 16.58 0 01-7.186 1.603zM266.53 66l6.354-31.95h8.789l-1.841 9.087-.831-2.613c1.425-2.574 3.286-4.375 5.582-5.404 2.296-1.03 5.048-1.544 8.254-1.544l-1.662 8.551c-.396-.04-.772-.06-1.129-.06a8.132 8.132 0 00-1.009-.059c-2.732 0-4.969.673-6.711 2.02-1.702 1.346-2.85 3.523-3.444 6.532L275.794 66h-9.264zm40.61.475c-3.325 0-6.215-.594-8.67-1.781-2.415-1.188-4.295-2.851-5.641-4.989-1.347-2.138-2.02-4.652-2.02-7.542 0-3.563.792-6.73 2.376-9.501a17.87 17.87 0 016.651-6.652c2.85-1.623 6.117-2.434 9.799-2.434 3.127 0 5.819.593 8.076 1.781 2.257 1.148 3.999 2.772 5.226 4.87 1.267 2.058 1.9 4.533 1.9 7.423 0 .831-.059 1.663-.178 2.494a21.407 21.407 0 01-.356 2.376h-26.427l.95-5.405h21.142l-3.801 1.663c.317-1.781.218-3.266-.297-4.454-.515-1.227-1.346-2.157-2.494-2.79-1.148-.674-2.534-1.01-4.157-1.01-2.019 0-3.741.495-5.167 1.484-1.385.95-2.434 2.277-3.147 3.98-.713 1.702-1.069 3.622-1.069 5.76 0 2.454.673 4.295 2.019 5.522 1.386 1.188 3.464 1.782 6.236 1.782 1.623 0 3.187-.257 4.691-.772s2.791-1.247 3.86-2.197l3.86 6.116a19.076 19.076 0 01-6.295 3.267 24.994 24.994 0 01-7.067 1.01z" fill="#3685FB"/><rect x="39.427" width="34.761" height="78.854" rx="17.38" transform="rotate(30 39.427 0)" stroke="#3685FB" stroke-width="7.2"/><rect x="76.953" y="4.33" width="34.761" height="78.854" rx="17.38" transform="rotate(30 76.953 4.33)" stroke="#3685FB" stroke-width="7.2"/></svg>