<svg width="36" height="36" fill="none" xmlns="http://www.w3.org/2000/svg"><path d="M18 13.314A4.696 4.696 0 0013.314 18 4.696 4.696 0 0018 22.687 4.696 4.696 0 0022.686 18 4.696 4.696 0 0018 13.314zM32.055 18c0-1.94.018-3.863-.091-5.8-.109-2.25-.622-4.247-2.268-5.893-1.648-1.649-3.642-2.158-5.892-2.267-1.94-.11-3.863-.092-5.8-.092-1.941 0-3.864-.017-5.801.092-2.25.109-4.247.622-5.893 2.267C4.662 7.957 4.152 9.95 4.043 12.2c-.11 1.94-.092 3.863-.092 5.8 0 1.937-.017 3.864.092 5.801.109 2.25.622 4.247 2.267 5.892 1.65 1.649 3.643 2.159 5.893 2.268 1.94.109 3.863.091 5.8.091 1.941 0 3.864.018 5.801-.091 2.25-.11 4.247-.622 5.892-2.268 1.65-1.649 2.159-3.642 2.268-5.892.113-1.937.091-3.86.091-5.8zM18 25.21A7.2 7.2 0 0110.79 18 7.2 7.2 0 0118 10.79 7.2 7.2 0 0125.21 18 7.2 7.2 0 0118 25.21zm7.506-13.032a1.682 1.682 0 01-1.684-1.684c0-.931.752-1.684 1.684-1.684a1.682 1.682 0 011.556 2.33 1.685 1.685 0 01-1.556 1.038z" fill="#000"/></svg>