<svg width="182" height="50" fill="none" xmlns="http://www.w3.org/2000/svg"><path d="M65.29 37l4.62-23.094h4.42l9.931 16.727-1.748-.1 3.299-16.627h5.279L86.47 37h-4.387L72.12 20.273l1.782.1L70.57 37h-5.28zm33.508.264a7.999 7.999 0 01-3.794-.924c-1.166-.638-2.1-1.55-2.804-2.738-.704-1.188-1.056-2.617-1.056-4.29 0-1.495.242-2.87.726-4.123a9.95 9.95 0 012.111-3.266 9.588 9.588 0 013.134-2.145 9.316 9.316 0 013.827-.792c1.474 0 2.739.275 3.795.825 1.055.55 1.836 1.408 2.342 2.574.528 1.143.715 2.628.561 4.453-.11 2.09-.539 3.927-1.287 5.51-.748 1.562-1.759 2.772-3.035 3.63-1.254.857-2.76 1.286-4.52 1.286zm1.584-4.256c1.011 0 1.902-.242 2.672-.726a5.179 5.179 0 001.847-2.045c.462-.88.693-1.903.693-3.069 0-1.21-.363-2.166-1.088-2.87-.704-.704-1.694-1.056-2.97-1.056-.989 0-1.88.253-2.672.76-.792.483-1.419 1.165-1.88 2.045-.44.857-.66 1.87-.66 3.035 0 1.21.352 2.166 1.055 2.87.726.704 1.727 1.056 3.003 1.056zm3.53 3.992l.693-3.53 1.154-5.279.693-5.278.726-3.663h5.147L108.795 37h-4.883zm16.048.264c-1.276 0-2.364-.253-3.266-.759a4.512 4.512 0 01-1.947-2.243c-.374-.99-.429-2.156-.165-3.497l3.068-15.44h5.147l-3.068 15.407c-.132.747-.055 1.341.231 1.781.286.44.814.66 1.584.66.351 0 .703-.055 1.055-.165a3.93 3.93 0 001.023-.462l.759 3.662a6.32 6.32 0 01-2.112.825c-.769.154-1.539.23-2.309.23zm-6.697-13.659l.791-3.959h12.306l-.791 3.96h-12.306zm20.572 13.659c-1.451 0-2.705-.308-3.761-.924-1.055-.638-1.803-1.562-2.243-2.771-.44-1.21-.484-2.706-.132-4.487l1.946-9.832h5.147l-1.88 9.502c-.264 1.298-.165 2.299.296 3.002.484.704 1.331 1.056 2.541 1.056 1.276 0 2.342-.374 3.2-1.122.88-.747 1.463-1.891 1.749-3.43l1.814-9.008h5.147L144.129 37h-4.883l.99-5.015.726 1.518c-.836 1.297-1.881 2.254-3.135 2.87a9.207 9.207 0 01-3.992.89zM148.072 37l3.53-17.75h4.883l-1.023 5.048-.462-1.451c.792-1.43 1.826-2.43 3.102-3.003 1.275-.572 2.804-.858 4.585-.858l-.923 4.751a6.313 6.313 0 00-.627-.033 4.528 4.528 0 00-.561-.033c-1.518 0-2.76.374-3.728 1.122-.946.748-1.584 1.957-1.914 3.63L153.219 37h-5.147zm22.562.264c-1.848 0-3.454-.33-4.817-.99-1.342-.66-2.387-1.583-3.134-2.771-.748-1.188-1.122-2.584-1.122-4.19 0-1.98.44-3.74 1.32-5.279a9.921 9.921 0 013.695-3.695c1.583-.902 3.398-1.353 5.443-1.353 1.738 0 3.233.33 4.487.99 1.254.638 2.222 1.54 2.903 2.706.704 1.143 1.056 2.518 1.056 4.123 0 .462-.033.924-.099 1.386-.044.462-.11.902-.198 1.32h-14.681l.528-3.002h11.745l-2.112.923c.176-.99.121-1.814-.165-2.474a3.078 3.078 0 00-1.385-1.55c-.638-.375-1.408-.562-2.31-.562-1.121 0-2.078.275-2.87.825-.77.528-1.353 1.265-1.749 2.21-.395.947-.593 2.013-.593 3.201 0 1.364.374 2.386 1.121 3.068.77.66 1.925.99 3.464.99a8 8 0 002.607-.429c.836-.286 1.55-.693 2.144-1.22l2.145 3.398a10.606 10.606 0 01-3.497 1.814c-1.276.374-2.585.56-3.926.56z" fill="#3685FB"/><rect x="21.904" width="19.311" height="43.808" rx="9.656" transform="rotate(30 21.904 0)" stroke="#3685FB" stroke-width="4"/><rect x="42.752" y="2.405" width="19.311" height="43.808" rx="9.656" transform="rotate(30 42.752 2.405)" stroke="#3685FB" stroke-width="4"/></svg>