<svg width="36" height="36" fill="none" xmlns="http://www.w3.org/2000/svg"><path d="M35.465 7.405c-1.253.555-2.599.93-4.013 1.1a7.005 7.005 0 003.072-3.867 13.95 13.95 0 01-4.437 1.695 6.99 6.99 0 00-11.907 6.375A19.842 19.842 0 013.777 5.406a6.984 6.984 0 00-.945 3.513 6.99 6.99 0 003.108 5.817 6.971 6.971 0 01-3.165-.875v.09a6.99 6.99 0 005.606 6.852 7.04 7.04 0 01-3.156.12 6.992 6.992 0 006.527 4.851 14.022 14.022 0 01-8.678 2.993 14.26 14.26 0 01-1.668-.098 19.763 19.763 0 0010.71 3.14c12.855 0 19.882-10.647 19.882-19.881 0-.3-.008-.603-.021-.903a14.205 14.205 0 003.485-3.615l.002-.005z" fill="#000"/></svg>